<svg width="20" height="12" viewBox="0 0 20 12" fill="none" xmlns="http://www.w3.org/2000/svg">
<path d="M0.15625 10.3789C0.15625 10.5612 0.221354 10.7174 0.351562 10.8477C0.481771 10.9779 0.638021 11.043 0.820312 11.043C1.0026 11.043 1.15885 10.9779 1.28906 10.8477L10.1172 2.01953L18.8086 10.7109C18.9388 10.8411 19.0951 10.9062 19.2773 10.9062C19.4596 10.9062 19.6159 10.8411 19.7461 10.7109C19.8763 10.5807 19.9414 10.4245 19.9414 10.2422C19.9414 10.0599 19.8763 9.90365 19.7461 9.77344L10.5859 0.613281C10.4557 0.483073 10.2995 0.417969 10.1172 0.417969C9.9349 0.417969 9.77865 0.483073 9.64844 0.613281L0.351562 9.89062C0.325521 9.91667 0.299479 9.94271 0.273438 9.96875C0.260417 10.0078 0.247396 10.0404 0.234375 10.0664C0.221354 10.1055 0.208333 10.138 0.195312 10.1641C0.182292 10.2031 0.169271 10.2357 0.15625 10.2617C0.15625 10.3008 0.15625 10.3398 0.15625 10.3789Z" fill="#D0D0D0"/>
</svg>
